<mxfile host="app.diagrams.net" agent="Mozilla/5.0 (Windows NT 10.0; Win64; x64) AppleWebKit/537.36 (KHTML, like Gecko) Chrome/131.0.0.0 Safari/537.36 Edg/131.0.0.0" version="25.0.3">
  <diagram name="Page-1" id="c9IRMGv52xxvMqEI-bAp">
    <mxGraphModel dx="785" dy="482" grid="1" gridSize="10" guides="1" tooltips="1" connect="1" arrows="1" fold="1" page="1" pageScale="1" pageWidth="850" pageHeight="1100" math="0" shadow="0">
      <root>
        <mxCell id="0" />
        <mxCell id="1" parent="0" />
        <mxCell id="pcVGzkrLHwzF4EQMK3bM-1" value="dmd_linux.cpp" style="swimlane;fontStyle=1;align=center;verticalAlign=top;childLayout=stackLayout;horizontal=1;startSize=26;horizontalStack=0;resizeParent=1;resizeParentMax=0;resizeLast=0;collapsible=1;marginBottom=0;whiteSpace=wrap;html=1;" vertex="1" parent="1">
          <mxGeometry x="340" y="60" width="440" height="160" as="geometry" />
        </mxCell>
        <mxCell id="pcVGzkrLHwzF4EQMK3bM-2" value="&lt;b&gt;initKMD()&lt;/b&gt;" style="text;strokeColor=#666666;fillColor=#f5f5f5;align=left;verticalAlign=top;spacingLeft=4;spacingRight=4;overflow=hidden;rotatable=0;points=[[0,0.5],[1,0.5]];portConstraint=eastwest;whiteSpace=wrap;html=1;fontColor=#333333;" vertex="1" parent="pcVGzkrLHwzF4EQMK3bM-1">
          <mxGeometry y="26" width="440" height="26" as="geometry" />
        </mxCell>
        <mxCell id="pcVGzkrLHwzF4EQMK3bM-3" value="" style="line;strokeWidth=1;fillColor=none;align=left;verticalAlign=middle;spacingTop=-1;spacingLeft=3;spacingRight=3;rotatable=0;labelPosition=right;points=[];portConstraint=eastwest;strokeColor=inherit;" vertex="1" parent="pcVGzkrLHwzF4EQMK3bM-1">
          <mxGeometry y="52" width="440" height="8" as="geometry" />
        </mxCell>
        <mxCell id="pcVGzkrLHwzF4EQMK3bM-4" value="for (int i = 0; i &amp;lt; 100; i++) {&lt;div&gt;&amp;nbsp; &amp;nbsp; GetNodeName(filename, i) // 填充 /dev/galcore%s&lt;/div&gt;&lt;div&gt;&lt;br&gt;&lt;/div&gt;&lt;div&gt;&amp;nbsp; &amp;nbsp; int node = open(filename, O_RDWR)&lt;/div&gt;&lt;div&gt;&amp;nbsp; &amp;nbsp; if (-1 == node) { &lt;font color=&quot;#ff3333&quot;&gt;&lt;b&gt;sKmdNodeCount &lt;/b&gt;&lt;/font&gt;= i)&amp;nbsp; &amp;nbsp; &amp;nbsp;//记录device 数量&lt;/div&gt;&lt;div&gt;}&lt;/div&gt;&lt;div&gt;&lt;br&gt;&lt;/div&gt;&lt;div&gt;&lt;br&gt;&lt;/div&gt;" style="text;strokeColor=none;fillColor=none;align=left;verticalAlign=top;spacingLeft=4;spacingRight=4;overflow=hidden;rotatable=0;points=[[0,0.5],[1,0.5]];portConstraint=eastwest;whiteSpace=wrap;html=1;" vertex="1" parent="pcVGzkrLHwzF4EQMK3bM-1">
          <mxGeometry y="60" width="440" height="100" as="geometry" />
        </mxCell>
        <mxCell id="pcVGzkrLHwzF4EQMK3bM-5" value="cudaGetDevice" style="html=1;whiteSpace=wrap;" vertex="1" parent="1">
          <mxGeometry x="60" y="170" width="110" height="50" as="geometry" />
        </mxCell>
        <mxCell id="pcVGzkrLHwzF4EQMK3bM-6" value="cudaSetDevice" style="html=1;whiteSpace=wrap;" vertex="1" parent="1">
          <mxGeometry x="60" y="272" width="110" height="50" as="geometry" />
        </mxCell>
        <mxCell id="pcVGzkrLHwzF4EQMK3bM-7" value="cudaGetDeviceCount" style="html=1;whiteSpace=wrap;" vertex="1" parent="1">
          <mxGeometry x="60" y="60" width="140" height="50" as="geometry" />
        </mxCell>
      </root>
    </mxGraphModel>
  </diagram>
</mxfile>
